<svg xmlns="http://www.w3.org/2000/svg" viewBox="0 0 1600 900" width="1600" height="900" preserveAspectRatio="xMidYMid slice">
  
  <defs>
    <linearGradient id="sky-bus" x1="0" y1="0" x2="0" y2="1">
      <stop offset="0" stop-color="#2A0E0E"/>
      <stop offset="0.4" stop-color="#4B1717"/>
      <stop offset="0.6" stop-color="#A94A38"/>
      <stop offset="1" stop-color="#0B0807"/>
    </linearGradient>
    <radialGradient id="glow-bus" cx="0.5" cy="0.5" r="0.5">
      <stop offset="0" stop-color="#D7A451" stop-opacity="0.75"/>
      <stop offset="1" stop-color="#D7A451" stop-opacity="0"/>
    </radialGradient>
    <linearGradient id="fade-bus" x1="0" y1="0" x2="1" y2="0">
      <stop offset="0" stop-color="#0B0807" stop-opacity="0.88"/>
      <stop offset="0.42" stop-color="#0B0807" stop-opacity="0.32"/>
      <stop offset="1" stop-color="#0B0807" stop-opacity="0.05"/>
    </linearGradient>
    <filter id="grain-bus" x="0" y="0" width="100%" height="100%">
      <feTurbulence type="fractalNoise" baseFrequency="0.9" numOctaves="3" stitchTiles="stitch"/>
      <feColorMatrix type="saturate" values="0"/>
      <feComponentTransfer><feFuncA type="linear" slope="0.16"/></feComponentTransfer>
    </filter>
    <filter id="soft-bus"><feGaussianBlur stdDeviation="7"/></filter>
    <filter id="soft2-bus"><feGaussianBlur stdDeviation="16"/></filter>
  </defs>
  <rect width="1600" height="900" fill="url(#sky-bus)"/>
  
    <rect x="120" y="90" width="1360" height="720" rx="46" fill="#0A0505" opacity="0.55"/>
    <rect x="170" y="140" width="1260" height="620" rx="34" fill="url(#sky-bus)" opacity="0.95"/>
    <circle cx="1130" cy="330" r="70" fill="#F0D8A6" opacity="0.85"/>
    <path d="M170 560 L470 500 L760 545 L1080 495 L1430 545 L1430 760 L170 760 Z" fill="#2A0E0E" opacity="0.8"/>
    <path d="M170 640 q300-40 620 0 q320 40 640-10 v130 H170 z" fill="#0B0807" opacity="0.92"/>
    <g fill="#0B0807" opacity="0.9">
      <rect x="470" y="380" width="10" height="180"/>
      <rect x="980" y="360" width="10" height="200"/>
      <path d="M470 392 h86 l-16 30 H470 z"/>
    </g>
    <path d="M560 760 L900 560 L1240 760 Z" fill="#D7A451" opacity="0.18"/>
    <rect x="770" y="140" width="18" height="620" fill="#0A0505" opacity="0.85"/>
    <rect x="170" y="470" width="1260" height="16" fill="#0A0505" opacity="0.75"/>
    <g stroke="#F4EBDD" stroke-width="3" opacity="0.16">
      <path d="M250 170 l70 400 M420 170 l64 400 M640 170 l58 400 M1100 170 l64 400 M1300 170 l60 400"/>
    </g>
    <rect x="120" y="90" width="1360" height="720" rx="46" fill="none" stroke="#0A0505" stroke-width="26"/>
    <path d="M0 760 h1600 v140 H0 z" fill="#070404"/>
    <rect x="180" y="742" width="1240" height="26" rx="12" fill="#1D1511"/>
  <rect width="1600" height="900" fill="url(#fade-bus)"/>
  <rect width="1600" height="900" filter="url(#grain-bus)" opacity="0.5"/>
  <rect width="1600" height="900" fill="none"/>
  <radialGradient id="vig-bus" cx="0.5" cy="0.5" r="0.75">
    <stop offset="0.55" stop-color="#000" stop-opacity="0"/>
    <stop offset="1" stop-color="#000" stop-opacity="0.62"/>
  </radialGradient>
  <rect width="1600" height="900" fill="url(#vig-bus)"/>
</svg>